# xmcd
#
# Track frame offsets:
#	150
#	19464
#	44092
#	61487
#	87914
#	109154
#	131198
#	152524
#	162534
#	177120
#
# Disc length: 2651 seconds
# Revision: 0
# Processed by: cddbd v1.5.2PL0 Copyright (c) Steve Scherf et al.
# Submitted via: dBpowerAMP V12.0
#
DISCID=8b0a590a
DTITLE=Suzannah Espie - mother's not feeling herslf today
DYEAR=2015
DGENRE=Country
TTITLE0=What Would You Say
TTITLE1=I Wish I Had A Sister
TTITLE2=The Day I Lost You
TTITLE3=If I Knew
TTITLE4=I'm Sorry
TTITLE5=Hands On The Wheel
TTITLE6=Catalina Blue
TTITLE7=The Next Room
TTITLE8=Mother's Not Feeling Herself Today
TTITLE9=Another Day In The Park
EXTD=
EXTT0=
EXTT1=
EXTT2=
EXTT3=
EXTT4=
EXTT5=
EXTT6=
EXTT7=
EXTT8=
EXTT9=
PLAYORDER=
